<svg xmlns="http://www.w3.org/2000/svg" width="32" height="32" viewBox="0 0 32 32" fill="none">
  <path d="M26 14.0002C25.9999 11.6052 25.2831 9.26508 23.9418 7.28087C22.6006 5.29665 20.6964 3.75916 18.4741 2.86622C16.2518 1.97328 13.8131 1.76574 11.4719 2.27032C9.13064 2.77489 6.99394 3.96848 5.33672 5.69752C3.6795 7.42656 2.57756 9.61193 2.17271 11.9725C1.76785 14.333 2.07859 16.7606 3.06494 18.9431C4.0513 21.1255 5.66814 22.9629 7.70744 24.2188C9.74673 25.4747 12.1152 26.0916 14.508 25.9902C14.2817 25.3463 14.1294 24.6786 14.054 24.0002H14C12.0222 24.0002 10.0888 23.4137 8.44431 22.3149C6.79981 21.2161 5.51809 19.6543 4.76121 17.8271C4.00434 15.9998 3.8063 13.9891 4.19216 12.0493C4.57801 10.1095 5.53042 8.32768 6.92894 6.92916C8.32747 5.53063 10.1093 4.57822 12.0491 4.19237C13.9889 3.80652 15.9996 4.00455 17.8268 4.76143C19.6541 5.5183 21.2159 6.80003 22.3147 8.44452C23.4135 10.089 24 12.0224 24 14.0002V14.0542C24.6907 14.1342 25.354 14.2856 25.99 14.5082C25.9967 14.3402 26 14.1709 26 14.0002ZM14.224 20.9962C14.3933 20.2576 14.6467 19.5602 14.984 18.9042C14.664 18.9669 14.336 18.9989 14 19.0002C12.52 19.0002 11.19 18.3582 10.272 17.3342C10.0925 17.148 9.84771 17.0386 9.5892 17.029C9.33068 17.0194 9.07851 17.1104 8.88564 17.2828C8.69278 17.4552 8.57423 17.6956 8.55491 17.9536C8.53558 18.2116 8.61698 18.467 8.78201 18.6662C9.46359 19.4283 10.3038 20.0318 11.2437 20.4344C12.1835 20.8369 13.2021 21.0287 14.224 20.9962ZM12 12.0002C12 12.398 11.842 12.7796 11.5607 13.0609C11.2794 13.3422 10.8978 13.5002 10.5 13.5002C10.1022 13.5002 9.72065 13.3422 9.43935 13.0609C9.15804 12.7796 9.00001 12.398 9.00001 12.0002C9.00001 11.6024 9.15804 11.2209 9.43935 10.9396C9.72065 10.6583 10.1022 10.5002 10.5 10.5002C10.8978 10.5002 11.2794 10.6583 11.5607 10.9396C11.842 11.2209 12 11.6024 12 12.0002ZM17.5 13.5002C17.8978 13.5002 18.2794 13.3422 18.5607 13.0609C18.842 12.7796 19 12.398 19 12.0002C19 11.6024 18.842 11.2209 18.5607 10.9396C18.2794 10.6583 17.8978 10.5002 17.5 10.5002C17.1022 10.5002 16.7207 10.6583 16.4394 10.9396C16.158 11.2209 16 11.6024 16 12.0002C16 12.398 16.158 12.7796 16.4394 13.0609C16.7207 13.3422 17.1022 13.5002 17.5 13.5002ZM30 23.0002C30 24.8567 29.2625 26.6372 27.9498 27.95C26.637 29.2627 24.8565 30.0002 23 30.0002C21.1435 30.0002 19.363 29.2627 18.0503 27.95C16.7375 26.6372 16 24.8567 16 23.0002C16 21.1437 16.7375 19.3632 18.0503 18.0505C19.363 16.7377 21.1435 16.0002 23 16.0002C24.8565 16.0002 26.637 16.7377 27.9498 18.0505C29.2625 19.3632 30 21.1437 30 23.0002ZM24 19.0002C24 18.735 23.8947 18.4807 23.7071 18.2931C23.5196 18.1056 23.2652 18.0002 23 18.0002C22.7348 18.0002 22.4804 18.1056 22.2929 18.2931C22.1054 18.4807 22 18.735 22 19.0002V22.0002H19C18.7348 22.0002 18.4804 22.1056 18.2929 22.2931C18.1054 22.4806 18 22.735 18 23.0002C18 23.2654 18.1054 23.5198 18.2929 23.7073C18.4804 23.8949 18.7348 24.0002 19 24.0002H22V27.0002C22 27.2654 22.1054 27.5198 22.2929 27.7073C22.4804 27.8949 22.7348 28.0002 23 28.0002C23.2652 28.0002 23.5196 27.8949 23.7071 27.7073C23.8947 27.5198 24 27.2654 24 27.0002V24.0002H27C27.2652 24.0002 27.5196 23.8949 27.7071 23.7073C27.8947 23.5198 28 23.2654 28 23.0002C28 22.735 27.8947 22.4806 27.7071 22.2931C27.5196 22.1056 27.2652 22.0002 27 22.0002H24V19.0002Z" fill="black"/>
</svg>