<svg xmlns="http://www.w3.org/2000/svg" width="32" height="32" viewBox="0 0 32 32" fill="none">
<g transform="translate(6.66665, 4.75315)">
<path d="M9.33333 20.0473L3.6339 22.4937C2.76877 22.8637 1.94684 22.7928 1.1681 22.2812C0.389367 21.7695 0 21.0498 0 20.122V2.59574C0 1.87038 0.251282 1.25641 0.753846 0.753846C1.25641 0.251282 1.87038 0 2.59574 0H16.0709C16.7963 0 17.4103 0.251282 17.9128 0.753846C18.4154 1.25641 18.6667 1.87038 18.6667 2.59574V20.122C18.6667 21.0498 18.2773 21.7695 17.4986 22.2812C16.7198 22.7928 15.8979 22.8637 15.0328 22.4937L9.33333 20.0473ZM9.33333 17.6615L15.8914 20.4863C16.0389 20.5507 16.1792 20.5369 16.3125 20.445C16.4461 20.3529 16.5128 20.2286 16.5128 20.0721V2.59574C16.5128 2.48518 16.4668 2.38395 16.3746 2.29205C16.2827 2.19991 16.1815 2.15385 16.0709 2.15385H2.59574C2.48518 2.15385 2.38395 2.19991 2.29205 2.29205C2.19991 2.38395 2.15385 2.48518 2.15385 2.59574V20.0721C2.15385 20.2286 2.22062 20.3529 2.35415 20.445C2.48745 20.5369 2.62781 20.5507 2.77523 20.4863L9.33333 17.6615Z" fill="white"/>
</g>
</svg>