<svg width="16" height="16" viewBox="0 0 16 16" fill="none" xmlns="http://www.w3.org/2000/svg">
<g clip-path="url(#clip0_270_5145)">
<path d="M11 1.05566C11.2455 1.05567 11.4443 1.25455 11.4443 1.5V2.05566H13C13.5215 2.05577 13.9443 2.47852 13.9443 3V13C13.9442 13.5214 13.5214 13.9442 13 13.9443H3C2.47856 13.9443 2.05584 13.5214 2.05566 13V3C2.05572 2.47848 2.47848 2.05572 3 2.05566H4.55566V1.5C4.55566 1.25455 4.75456 1.05568 5 1.05566C5.24546 1.05566 5.44434 1.25454 5.44434 1.5V2.05566H10.5557V1.5C10.5557 1.25454 10.7545 1.05566 11 1.05566ZM2.94434 13C2.94451 13.0305 2.96948 13.0556 3 13.0557H13C13.0305 13.0556 13.0555 13.0305 13.0557 13V5.94434H2.94434V13ZM5.25 10C5.66419 10 5.99996 10.3358 6 10.75C6 11.1642 5.66421 11.5 5.25 11.5C4.8358 11.5 4.5 11.1642 4.5 10.75C4.50004 10.3358 4.83582 10 5.25 10ZM8 10C8.41419 10 8.74996 10.3358 8.75 10.75C8.75 11.1642 8.41421 11.5 8 11.5C7.58581 11.5 7.25 11.1642 7.25 10.75C7.25004 10.3358 7.58583 10 8 10ZM10.75 10C11.1642 10 11.5 10.3358 11.5 10.75C11.5 11.1642 11.1642 11.5 10.75 11.5C10.3358 11.5 10 11.1642 10 10.75C10 10.3358 10.3358 10 10.75 10ZM8 7.5C8.41421 7.5 8.75 7.83579 8.75 8.25C8.74993 8.66415 8.41417 9 8 9C7.58585 8.99997 7.25007 8.66414 7.25 8.25C7.25 7.8358 7.58581 7.50003 8 7.5ZM10.75 7.5C11.1642 7.5 11.5 7.83579 11.5 8.25C11.4999 8.66415 11.1642 9 10.75 9C10.3359 8.99996 10.0001 8.66413 10 8.25C10 7.83581 10.3358 7.50004 10.75 7.5ZM3 2.94434C2.9694 2.9444 2.9444 2.9694 2.94434 3V5.05566H13.0557V3C13.0556 2.96943 13.0306 2.94444 13 2.94434H11.4443V3.49902C11.4443 3.74448 11.2455 3.94433 11 3.94434C10.7545 3.94434 10.5557 3.74448 10.5557 3.49902V2.94434H5.44434V3.49902C5.44434 3.74448 5.24546 3.94434 5 3.94434C4.75456 3.94432 4.55566 3.74447 4.55566 3.49902V2.94434H3Z" fill="white"/>
</g>
<defs>
<clipPath id="clip0_270_5145">
<rect width="16" height="16" fill="white"/>
</clipPath>
</defs>
</svg>
