<svg width="19" height="4" viewBox="0 0 19 4" fill="none" xmlns="http://www.w3.org/2000/svg">
<path d="M1.98199 4C1.61584 4 1.28152 3.90915 0.979053 3.72745C0.681888 3.54576 0.443095 3.30528 0.262673 3.00601C0.0875576 2.7014 0 2.3674 0 2.00401C0 1.63527 0.0875576 1.30127 0.262673 1.002C0.443095 0.697395 0.681888 0.454242 0.979053 0.272545C1.28152 0.0908484 1.61584 0 1.98199 0C2.34814 0 2.68245 0.0908484 2.98492 0.272545C3.28739 0.454242 3.52618 0.697395 3.7013 1.002C3.88172 1.30127 3.97193 1.63527 3.97193 2.00401C3.97193 2.3674 3.88172 2.7014 3.7013 3.00601C3.52618 3.30528 3.28739 3.54576 2.98492 3.72745C2.68245 3.90915 2.34814 4 1.98199 4ZM9.49602 4C9.13518 4 8.80352 3.90915 8.50105 3.72745C8.19858 3.54576 7.95713 3.30528 7.77671 3.00601C7.60159 2.7014 7.51403 2.3674 7.51403 2.00401C7.51403 1.63527 7.60159 1.30127 7.77671 1.002C7.95713 0.697395 8.19858 0.454242 8.50105 0.272545C8.80352 0.0908484 9.13518 0 9.49602 0C9.86217 0 10.1938 0.0908484 10.491 0.272545C10.7935 0.454242 11.0323 0.697395 11.2074 1.002C11.3878 1.30127 11.478 1.63527 11.478 2.00401C11.478 2.3674 11.3878 2.7014 11.2074 3.00601C11.0323 3.30528 10.7935 3.54576 10.491 3.72745C10.1938 3.90915 9.86217 4 9.49602 4ZM17.0101 4C16.6492 4 16.3176 3.90915 16.0151 3.72745C15.7126 3.54576 15.4712 3.30528 15.2907 3.00601C15.1156 2.7014 15.0281 2.3674 15.0281 2.00401C15.0281 1.63527 15.1156 1.30127 15.2907 1.002C15.4712 0.697395 15.7126 0.454242 16.0151 0.272545C16.3176 0.0908484 16.6492 0 17.0101 0C17.3815 0 17.7158 0.0908484 18.013 0.272545C18.3102 0.454242 18.5489 0.697395 18.7294 1.002C18.9098 1.30127 19 1.63527 19 2.00401C19 2.3674 18.9098 2.7014 18.7294 3.00601C18.5489 3.30528 18.3102 3.54576 18.013 3.72745C17.7158 3.90915 17.3815 4 17.0101 4Z" fill="white" style="mix-blend-mode:plus-darker"/>
</svg>
