<svg xmlns="http://www.w3.org/2000/svg" width="24" height="24" viewBox="0 0 24 24" fill="none">
  <path d="M15.1495 4.9777C16.1198 4.00769 17.693 4.00751 18.6632 4.9777C19.6333 5.9479 19.6332 7.52109 18.6632 8.49137L8.39072 18.7638C8.13321 19.0213 7.92139 19.2403 7.66318 19.3986C7.4499 19.5293 7.21693 19.6253 6.97372 19.6838C6.67912 19.7545 6.37415 19.7502 6.00986 19.7502H4.64071C4.22656 19.7502 3.8908 19.4143 3.89071 19.0002V17.631C3.89071 17.2667 3.88542 16.9618 3.95614 16.6672C4.01458 16.4238 4.11153 16.1911 4.24228 15.9777C4.40057 15.7195 4.61952 15.5077 4.87704 15.2502L15.1495 4.9777ZM19.3595 18.2502C19.7735 18.2504 20.1095 18.5861 20.1095 19.0002C20.1094 19.4142 19.7734 19.7499 19.3595 19.7502H12.0001C11.5859 19.7502 11.2502 19.4143 11.2501 19.0002C11.2501 18.5859 11.5859 18.2502 12.0001 18.2502H19.3595ZM5.39072 18.2502H6.00986C6.44555 18.2502 6.54132 18.2454 6.62314 18.2257C6.71347 18.2041 6.79978 18.1678 6.879 18.1193C6.95071 18.0753 7.02222 18.0112 7.33017 17.7033L17.6026 7.43083C17.9868 7.04633 17.987 6.42266 17.6026 6.03825C17.2182 5.65384 16.5946 5.65402 16.2101 6.03825L5.93759 16.3107C5.6296 16.6187 5.56554 16.6902 5.52157 16.7619C5.47303 16.8411 5.43682 16.9274 5.41513 17.0177C5.39551 17.0995 5.39072 17.1955 5.39072 17.631V18.2502Z" fill="white"/>
</svg>