<svg xmlns="http://www.w3.org/2000/svg" width="36" height="36" viewBox="0 0 36 36" fill="none">
  <path d="M15.19 3.87341C14.9562 3.92007 14.7505 4.0576 14.618 4.25581C14.4854 4.45402 14.437 4.69671 14.4833 4.9306C14.5295 5.1645 14.6667 5.37048 14.8647 5.50334C15.0626 5.63619 15.3053 5.68506 15.5392 5.63921C17.164 5.32513 18.8339 5.32513 20.4586 5.63921C20.6878 5.6741 20.9216 5.61923 21.1113 5.48604C21.301 5.35285 21.432 5.15161 21.477 4.92423C21.522 4.69686 21.4775 4.46088 21.3529 4.26546C21.2282 4.07004 21.033 3.93025 20.8078 3.87521C18.9525 3.51556 17.0454 3.51556 15.19 3.87521M26.0008 6.02801C25.8027 5.90767 25.5658 5.8684 25.3395 5.91838C25.1132 5.96836 24.9148 6.10374 24.7858 6.29631C24.6568 6.48889 24.6071 6.72381 24.647 6.95214C24.6869 7.18047 24.8134 7.3846 25 7.52201C26.3766 8.44205 27.5583 9.62438 28.4776 11.0014C28.5407 11.1053 28.6242 11.1953 28.7231 11.266C28.8219 11.3368 28.9341 11.3868 29.0528 11.413C29.1714 11.4392 29.2942 11.4411 29.4137 11.4185C29.5331 11.396 29.6467 11.3495 29.7477 11.2819C29.8487 11.2142 29.9349 11.1268 30.0012 11.0249C30.0675 10.9231 30.1125 10.8088 30.1334 10.6891C30.1543 10.5693 30.1508 10.4466 30.123 10.3283C30.0952 10.21 30.0437 10.0985 29.9716 10.0006C28.9216 8.4286 27.5724 7.07873 26.0008 6.02801ZM10.9996 7.52201C11.1902 7.38591 11.3202 7.18092 11.362 6.95055C11.4039 6.72017 11.3543 6.48255 11.2238 6.28812C11.0934 6.0937 10.8923 5.95777 10.6632 5.90921C10.4341 5.86064 10.1952 5.90326 9.99703 6.02801C8.42485 7.07854 7.07496 8.42843 6.02443 10.0006C5.89664 10.199 5.85187 10.4396 5.89978 10.6707C5.94769 10.9018 6.08443 11.1048 6.28056 11.236C6.47669 11.3672 6.71652 11.4162 6.94839 11.3723C7.18025 11.3284 7.38561 11.1952 7.52023 11.0014C8.44028 9.62486 9.62261 8.44134 10.9996 7.52201ZM5.63923 15.541C5.66238 15.425 5.66243 15.3055 5.63937 15.1895C5.61631 15.0734 5.57059 14.963 5.50483 14.8647C5.43907 14.7663 5.35456 14.6819 5.25614 14.6162C5.15771 14.5505 5.0473 14.5049 4.93123 14.482C4.81516 14.459 4.6957 14.4592 4.57969 14.4824C4.46368 14.5057 4.35339 14.5516 4.25514 14.6175C4.15689 14.6835 4.0726 14.7681 4.00711 14.8667C3.94161 14.9652 3.89618 15.0757 3.87343 15.1918C3.51354 17.0477 3.51354 18.9555 3.87343 20.8114C3.92847 21.0366 4.06826 21.2318 4.26368 21.3565C4.4591 21.4811 4.69508 21.5256 4.92246 21.4805C5.14983 21.4355 5.35108 21.3045 5.48427 21.1148C5.61746 20.9251 5.67232 20.6914 5.63743 20.4622C5.32312 18.8369 5.32492 17.1664 5.63923 15.541ZM32.1226 15.1918C32.1043 15.0716 32.0619 14.9564 31.9978 14.8531C31.9338 14.7498 31.8495 14.6605 31.75 14.5907C31.6506 14.5209 31.538 14.4719 31.419 14.4467C31.3001 14.4216 31.1773 14.4208 31.0581 14.4444C30.9389 14.468 30.8257 14.5155 30.7253 14.5841C30.6249 14.6526 30.5395 14.7408 30.4741 14.8433C30.4087 14.9458 30.3648 15.0604 30.345 15.1803C30.3251 15.3002 30.3298 15.4229 30.3586 15.541C30.6718 17.1322 30.6718 18.871 30.3586 20.4622C30.3298 20.5803 30.3251 20.703 30.345 20.8229C30.3648 20.9428 30.4087 21.0575 30.4741 21.1599C30.5395 21.2624 30.6249 21.3506 30.7253 21.4191C30.8257 21.4877 30.9389 21.5352 31.0581 21.5588C31.1773 21.5824 31.3001 21.5816 31.419 21.5565C31.538 21.5313 31.6506 21.4824 31.75 21.4125C31.8495 21.3427 31.9338 21.2534 31.9978 21.1501C32.0619 21.0468 32.1043 20.9316 32.1226 20.8114C32.4826 18.9934 32.4826 17.0116 32.1226 15.1918ZM7.52023 25.0018C7.38282 24.8151 7.17869 24.6887 6.95036 24.6488C6.72203 24.6089 6.48711 24.6586 6.29453 24.7876C6.10196 24.9166 5.96658 25.1149 5.9166 25.3413C5.86662 25.5676 5.90589 25.8045 6.02623 26.0026C7.07624 27.5746 8.4255 28.9245 9.99703 29.9752C10.1952 30.1 10.4341 30.1426 10.6632 30.094C10.8923 30.0454 11.0934 29.9095 11.2238 29.7151C11.3543 29.5207 11.4039 29.283 11.362 29.0527C11.3202 28.8223 11.1902 28.6173 10.9996 28.4812C9.62243 27.5613 8.44009 26.379 7.52023 25.0018ZM29.9734 26.0026C30.0416 25.9045 30.0895 25.7937 30.1145 25.6768C30.1394 25.5599 30.1408 25.4393 30.1185 25.3218C30.0963 25.2044 30.0509 25.0926 29.985 24.9929C29.9191 24.8932 29.834 24.8076 29.7347 24.7412C29.6354 24.6747 29.5238 24.6287 29.4065 24.6058C29.2892 24.583 29.1685 24.5837 29.0515 24.6079C28.9345 24.6322 28.8235 24.6795 28.725 24.7471C28.6264 24.8148 28.5423 24.9013 28.4776 25.0018C27.5581 26.3782 26.3764 27.5599 25 28.4794C24.8996 28.5441 24.813 28.6282 24.7454 28.7267C24.6777 28.8253 24.6304 28.9363 24.6061 29.0533C24.5819 29.1703 24.5812 29.291 24.6041 29.4083C24.6269 29.5256 24.6729 29.6372 24.7394 29.7365C24.8059 29.8358 24.8914 29.9209 24.9911 29.9868C25.0908 30.0527 25.2026 30.0981 25.3201 30.1203C25.4375 30.1425 25.5582 30.1412 25.675 30.1162C25.7919 30.0913 25.9027 30.0434 26.0008 29.9752C27.573 28.9247 28.9229 27.5748 29.9734 26.0026ZM15.5374 30.3622C15.3087 30.3286 15.0759 30.3842 14.8871 30.5176C14.6984 30.651 14.5682 30.8519 14.5235 31.0787C14.4788 31.3055 14.5231 31.5408 14.6472 31.7358C14.7713 31.9308 14.9657 32.0706 15.19 32.1262C17.0454 32.4859 18.9525 32.4859 20.8078 32.1262C21.033 32.0712 21.2282 31.9314 21.3529 31.736C21.4775 31.5405 21.522 31.3046 21.477 31.0772C21.432 30.8498 21.301 30.6486 21.1113 30.5154C20.9216 30.3822 20.6878 30.3273 20.4586 30.3622C18.8339 30.6763 17.164 30.6763 15.5392 30.3622M13.9498 16.1998C14.3079 16.1998 14.6512 16.0576 14.9044 15.8044C15.1576 15.5512 15.2998 15.2078 15.2998 14.8498C15.2998 14.4918 15.1576 14.1484 14.9044 13.8952C14.6512 13.642 14.3079 13.4998 13.9498 13.4998C13.5918 13.4998 13.2484 13.642 12.9952 13.8952C12.7421 14.1484 12.5998 14.4918 12.5998 14.8498C12.5998 15.2078 12.7421 15.5512 12.9952 15.8044C13.2484 16.0576 13.5918 16.1998 13.9498 16.1998ZM22.0498 16.1998C22.4079 16.1998 22.7512 16.0576 23.0044 15.8044C23.2576 15.5512 23.3998 15.2078 23.3998 14.8498C23.3998 14.4918 23.2576 14.1484 23.0044 13.8952C22.7512 13.642 22.4079 13.4998 22.0498 13.4998C21.6918 13.4998 21.3484 13.642 21.0952 13.8952C20.8421 14.1484 20.6998 14.4918 20.6998 14.8498C20.6998 15.2078 20.8421 15.5512 21.0952 15.8044C21.3484 16.0576 21.6918 16.1998 22.0498 16.1998ZM11.8168 21.7978C11.909 21.7238 12.0149 21.6687 12.1284 21.6356C12.2418 21.6025 12.3607 21.5921 12.4782 21.605C12.5957 21.6179 12.7096 21.6537 12.8132 21.7106C12.9168 21.7675 13.0083 21.8442 13.0822 21.9364C13.6722 22.6735 14.4202 23.2686 15.2711 23.6777C16.122 24.0868 17.0539 24.2994 17.998 24.2998C19.987 24.2998 21.76 23.3782 22.9174 21.9364C23.0669 21.7502 23.2841 21.631 23.5214 21.605C23.7587 21.579 23.9966 21.6484 24.1828 21.7978C24.369 21.9472 24.4882 22.1645 24.5142 22.4018C24.5402 22.6391 24.4708 22.877 24.3214 23.0632C23.5626 24.0107 22.6005 24.7755 21.5063 25.3011C20.4121 25.8267 19.2137 26.0997 17.9998 26.0998C16.7856 26.1 15.5869 25.8271 14.4924 25.3015C13.3978 24.7759 12.4354 24.0109 11.6764 23.0632C11.6025 22.9709 11.5475 22.865 11.5146 22.7514C11.4817 22.6379 11.4714 22.5189 11.4844 22.4014C11.4975 22.2839 11.5336 22.1701 11.5906 22.0665C11.6476 21.963 11.7245 21.8717 11.8168 21.7978Z" fill="white" fill-opacity="0.32"/>
</svg>