<svg width="80" height="80" viewBox="0 0 80 80" fill="none" xmlns="http://www.w3.org/2000/svg">
<rect x="0.5" y="0.5" width="79" height="79" stroke="#FF0000"/>
<path opacity="0.7" d="M55 8.3335L71.6667 25.0002M71.6667 8.3335L55 25.0002M41.6667 10.0002H26C20.3995 10.0002 17.5992 10.0002 15.4601 11.0901C13.5785 12.0488 12.0487 13.5786 11.0899 15.4603C10 17.5994 10 20.3996 10 26.0002V54.0002C10 59.6007 10 62.401 11.0899 64.5401C12.0487 66.4217 13.5785 67.9515 15.4601 68.9102C17.5992 70.0002 20.3995 70.0002 26 70.0002H56.6667C59.7666 70.0002 61.3165 70.0002 62.5882 69.6594C66.0391 68.7348 68.7346 66.0393 69.6593 62.5884C70 61.3167 70 59.7667 70 56.6668M35 28.3335C35 32.0154 32.0152 35.0002 28.3333 35.0002C24.6514 35.0002 21.6667 32.0154 21.6667 28.3335C21.6667 24.6516 24.6514 21.6668 28.3333 21.6668C32.0152 21.6668 35 24.6516 35 28.3335ZM49.9668 39.7273L21.7705 65.3603C20.1845 66.8021 19.3916 67.523 19.3214 68.1475C19.2606 68.6888 19.4682 69.2256 19.8773 69.5853C20.3493 70.0002 21.4209 70.0002 23.5643 70.0002H54.8533C59.6505 70.0002 62.0491 70.0002 63.9331 69.1942C66.2981 68.1825 68.1824 66.2983 69.1941 63.9332C70 62.0493 70 59.6506 70 54.8534C70 53.2393 70 52.4323 69.8235 51.6807C69.6018 50.7361 69.1766 49.8514 68.5775 49.0882C68.1008 48.4808 67.4706 47.9767 66.2102 46.9684L56.8861 39.509C55.6246 38.4999 54.9939 37.9953 54.2993 37.8172C53.6871 37.6602 53.0429 37.6806 52.4418 37.8758C51.7598 38.0973 51.1621 38.6407 49.9668 39.7273Z" stroke="white" stroke-width="2" stroke-linecap="round" stroke-linejoin="round"/>
</svg>
