<svg xmlns="http://www.w3.org/2000/svg" width="32" height="32" viewBox="0 0 32 32" fill="none">
<path d="M16.6868 2.68355C23.7328 3.04072 29.3365 8.86664 29.3366 16.0013C29.3366 23.3661 23.3655 29.3371 16.0007 29.3372C8.63584 29.3371 2.66602 23.3661 2.66602 16.0013C2.66609 8.63649 8.63588 2.66669 16.0007 2.66663L16.6868 2.68355ZM6.02148 20.7955C7.44737 23.7579 10.1539 25.9842 13.4225 26.7643C13.15 26.3619 12.862 25.9103 12.5762 25.4101C11.862 24.1604 11.1424 22.6035 10.6439 20.7955H6.02148ZM21.3574 20.7955C20.8586 22.6034 20.1393 24.1604 19.4251 25.4101C19.1392 25.9105 18.8498 26.3617 18.5775 26.7643C21.8466 25.9844 24.5538 23.7582 25.9798 20.7955H21.3574ZM13.0085 20.7955C13.4321 22.1328 13.986 23.307 14.5449 24.2851C15.0667 25.1983 15.5894 25.9321 16.0007 26.4596C16.412 25.9321 16.9357 25.1985 17.4577 24.2851C18.0165 23.307 18.5695 22.1327 18.9928 20.7955H13.0085ZM5.22591 13.4739C5.03614 14.286 4.93165 15.1314 4.93164 16.0013C4.93164 16.8711 5.03616 17.7166 5.22591 18.5286H10.1712C10.0551 17.7221 9.98763 16.8787 9.98763 16.0013C9.98764 15.1238 10.0551 14.2804 10.1712 13.4739H5.22591ZM12.4629 13.4739C12.3302 14.2763 12.2533 15.1203 12.2533 16.0013C12.2533 16.8822 12.3302 17.7262 12.4629 18.5286H19.5384C19.671 17.7262 19.748 16.8822 19.748 16.0013C19.748 15.1203 19.671 14.2763 19.5384 13.4739H12.4629ZM21.8301 13.4739C21.9463 14.2804 22.015 15.1238 22.015 16.0013C22.015 16.8787 21.9463 17.7221 21.8301 18.5286H26.7754C26.9651 17.7166 27.0697 16.8711 27.0697 16.0013C27.0697 15.1314 26.9651 14.286 26.7754 13.4739H21.8301ZM13.4225 5.23694C10.1532 6.01714 7.44593 8.24513 6.02018 11.2083H10.6439C11.1424 9.39982 11.8619 7.84244 12.5762 6.59241C12.8622 6.09183 13.1498 5.63951 13.4225 5.23694ZM16.0007 5.54293C15.5893 6.07038 15.0668 6.80418 14.5449 7.71741C13.9859 8.69579 13.4322 9.87056 13.0085 11.2083H18.9928C18.5695 9.87061 18.0167 8.69576 17.4577 7.71741C16.9357 6.80389 16.412 6.07045 16.0007 5.54293ZM18.5775 5.23694C18.85 5.63972 19.139 6.09165 19.4251 6.59241C20.1394 7.84242 20.8586 9.39989 21.3574 11.2083H25.9811C24.5553 8.24475 21.8473 6.01692 18.5775 5.23694Z" fill="currentColor"/>
</svg>
