<svg width="240" height="57" viewBox="0 0 240 57" fill="none" xmlns="http://www.w3.org/2000/svg">
<path d="M34.0557 8.47168L30.8379 12.2275C33.9281 15.4996 35.83 19.9403 35.8301 24.8242C35.8301 34.8741 27.7957 43.0458 17.915 43.0459C13.8899 43.0459 10.166 41.6842 7.1709 39.3955L4.62695 42.4902C4.14367 43.0705 4.04837 43.8362 4.36523 44.5293C4.68218 45.2224 5.32441 45.6338 6.07715 45.6338H26.0371V45.6416C28.9765 45.6419 31.3613 48.0678 31.3613 51.0576C31.3612 54.0473 28.9685 56.4724 26.0371 56.4727H1.5127V52.8389H26.0371C27.0035 52.8386 27.7879 52.0405 27.7881 51.0576C27.7881 50.0745 27.0036 49.2766 26.0371 49.2764H6.07715C3.92985 49.2764 2.03621 48.0429 1.125 46.0684C0.221796 44.0939 0.507092 41.8296 1.88574 40.1533L4.54004 36.9297C1.71924 33.706 0 29.4664 0 24.8242C6.58913e-05 14.7744 8.03447 6.59448 17.9072 6.60254C21.7024 6.60258 25.2202 7.81127 28.1201 9.86621L31.3613 6.08691L34.0557 8.47168ZM43.2666 42.2617H39.7217V0H43.2666V42.2617ZM64.5459 6.44922C66.96 6.44922 69.2306 6.91497 71.3564 7.84668C73.4822 8.77838 75.3627 10.0452 76.9912 11.6465C78.6197 13.2477 79.9095 15.1472 80.8535 17.3379C81.7975 19.5361 82.2734 21.8733 82.2734 24.3555C82.2734 26.8375 81.7975 29.2392 80.8535 31.4082C79.9095 33.5846 78.6198 35.4704 76.9912 37.0645C75.3627 38.6657 73.4822 39.9326 71.3564 40.8643C69.2306 41.796 66.96 42.2617 64.5459 42.2617C62.132 42.2617 59.7108 41.7959 57.5635 40.8643C55.4088 39.9325 53.542 38.6658 51.9639 37.0645C50.3785 35.4631 49.1245 33.5773 48.2021 31.4082C47.2799 29.2393 46.8194 26.881 46.8193 24.3555C46.8193 21.8297 47.2798 19.5289 48.2021 17.3379C49.1245 15.1399 50.3787 13.2405 51.9639 11.6465C53.5492 10.0451 55.416 8.77839 57.5635 7.84668C59.7108 6.91502 62.0455 6.44927 64.5459 6.44922ZM89.3652 13.6123C90.9722 11.465 93.0264 9.73209 95.5342 8.42188C98.0418 7.11185 100.708 6.44924 103.547 6.44922C106.004 6.44922 108.325 6.91497 110.494 7.84668C112.67 8.77834 114.551 10.0452 116.129 11.6465C117.714 13.2478 118.968 15.1479 119.891 17.3389C120.813 19.537 121.274 21.8735 121.274 24.3555C121.274 26.8376 120.813 29.24 119.891 31.4092C118.968 33.5855 117.714 35.4704 116.129 37.0645C114.544 38.6657 112.663 39.9326 110.494 40.8643C108.318 41.796 106.004 42.2617 103.547 42.2617C101.09 42.2617 98.7118 41.7959 96.5645 40.8643C94.4098 39.9325 92.543 38.6658 90.9648 37.0645C89.3796 35.4631 88.1255 33.5782 87.2031 31.4092C86.2807 29.2401 85.8193 26.8812 85.8193 24.3555V0H89.3652V13.6123ZM128.372 13.6123C129.979 11.465 132.032 9.73208 134.54 8.42188C137.048 7.11166 139.714 6.44922 142.554 6.44922C145.011 6.44922 147.332 6.91497 149.501 7.84668C151.677 8.77835 153.558 10.0452 155.136 11.6465C156.721 13.2479 157.975 15.1479 158.897 17.3389C159.82 19.537 160.281 21.8735 160.281 24.3555C160.281 26.8376 159.82 29.24 158.897 31.4092C157.975 33.5855 156.721 35.4704 155.136 37.0645C153.55 38.6657 151.67 39.9326 149.501 40.8643C147.325 41.796 145.011 42.2617 142.554 42.2617C140.096 42.2617 137.719 41.7959 135.571 40.8643C133.417 39.9325 131.55 38.6658 129.972 37.0645C128.386 35.4631 127.132 33.5782 126.21 31.4092C125.288 29.24 124.826 26.8813 124.826 24.3555V0H128.372V13.6123ZM221.633 6.44922C224.047 6.44923 226.317 6.91501 228.442 7.84668C230.568 8.77839 232.45 10.0451 234.078 11.6465C235.707 13.2477 236.996 15.1472 237.94 17.3379C238.884 19.5361 239.36 21.8733 239.36 24.3555H235.814C235.814 22.3976 235.433 20.5486 234.684 18.8018C233.927 17.0621 232.91 15.5403 231.635 14.252C230.359 12.9636 228.853 11.9371 227.131 11.1729C225.401 10.4086 223.571 10.0303 221.633 10.0303C219.694 10.0303 217.864 10.416 216.135 11.1729C214.405 11.9371 212.906 12.9637 211.631 14.252C210.355 15.5403 209.339 17.0621 208.582 18.8018C207.825 20.5486 207.451 22.3976 207.451 24.3555V42.2617H203.905V24.3555C203.905 21.8733 204.367 19.5289 205.289 17.3379C206.211 15.1398 207.466 13.2405 209.051 11.6465C210.636 10.0452 212.502 8.77837 214.649 7.84668C216.797 6.91497 219.132 6.44922 221.633 6.44922ZM181.568 6.44141C184.069 6.44141 186.347 6.90814 188.516 7.83984C190.692 8.77147 192.572 10.0375 194.15 11.6387C195.736 13.24 196.99 15.1402 197.912 17.3311C198.834 19.5292 199.296 21.8657 199.296 24.3477V26.1387H167.38C167.661 27.9511 168.215 29.6257 169.044 31.1543C169.873 32.6827 170.925 33.9927 172.2 35.0918C173.476 36.1909 174.91 37.0645 176.488 37.7051C178.074 38.3529 179.76 38.6729 181.562 38.6729V38.6807C184.588 38.6807 187.262 37.8727 189.575 36.2422C191.888 34.619 193.595 32.442 194.684 29.7197H198.583C197.97 31.5322 197.105 33.2068 195.995 34.7354C194.885 36.2638 193.581 37.5738 192.097 38.6729C190.605 39.7719 188.962 40.6456 187.168 41.2861C185.374 41.934 183.5 42.2549 181.568 42.2549C179.061 42.2548 176.733 41.7881 174.586 40.8564C172.431 39.9248 170.564 38.6589 168.986 37.0576C167.401 35.4562 166.147 33.5705 165.225 31.4014C164.302 29.2323 163.842 26.8734 163.842 24.3477C163.842 21.822 164.302 19.5219 165.225 17.3311C166.147 15.1328 167.401 13.2328 168.986 11.6387C170.572 10.0373 172.439 8.77154 174.586 7.83984C176.733 6.90817 179.068 6.44145 181.568 6.44141ZM17.915 10.2373C10.0073 10.2373 3.57331 16.7811 3.57324 24.8242C3.57324 32.8674 10.0073 39.4121 17.915 39.4121C25.8227 39.4121 32.2568 32.8673 32.2568 24.8242C32.2568 16.7811 25.8227 10.2374 17.915 10.2373ZM64.5459 10.0303C62.6076 10.0303 60.7772 10.4159 59.0479 11.1729C57.3184 11.9371 55.8194 12.9636 54.5439 14.252C53.2685 15.5403 52.2527 17.0621 51.4961 18.8018C50.7395 20.5486 50.3643 22.3975 50.3643 24.3555C50.3643 26.3134 50.7395 28.1623 51.4961 29.9092C52.2527 31.6559 53.2686 33.1697 54.5439 34.458C55.8194 35.7463 57.3184 36.7728 59.0479 37.5371C60.77 38.3013 62.6076 38.6806 64.5459 38.6807C66.4844 38.6807 68.3154 38.3014 70.0449 37.5371C71.7671 36.7728 73.2734 35.7463 74.5488 34.458C75.8241 33.1697 76.8401 31.6559 77.5967 29.9092C78.3533 28.1696 78.7285 26.3134 78.7285 24.3555C78.7285 22.3975 78.346 20.5486 77.5967 18.8018C76.84 17.0621 75.8243 15.5403 74.5488 14.252C73.2734 12.9636 71.7671 11.9371 70.0449 11.1729C68.3154 10.4086 66.4844 10.0303 64.5459 10.0303ZM103.547 10.0312C101.608 10.0313 99.7783 10.4169 98.0488 11.1738C96.3193 11.9381 94.8204 12.9646 93.5449 14.2529C92.2695 15.5413 91.2527 17.0621 90.4961 18.8018C89.7395 20.5486 89.3653 22.3976 89.3652 24.3555C89.3652 26.3135 89.7394 28.1632 90.4961 29.9102C91.2527 31.657 92.2695 33.1707 93.5449 34.459C94.8204 35.7473 96.3193 36.7738 98.0488 37.5381C99.771 38.3023 101.609 38.6806 103.547 38.6807C105.485 38.6807 107.316 38.3023 109.045 37.5381C110.767 36.7738 112.273 35.7473 113.549 34.459C114.824 33.1707 115.841 31.657 116.598 29.9102C117.354 28.1705 117.729 26.3135 117.729 24.3555C117.728 22.3976 117.347 20.5486 116.598 18.8018C115.841 17.0621 114.824 15.5413 113.549 14.2529C112.273 12.9646 110.767 11.9381 109.045 11.1738C107.316 10.4096 105.485 10.0312 103.547 10.0312ZM142.554 10.0312C140.615 10.0312 138.785 10.4169 137.056 11.1738C135.326 11.9381 133.827 12.9646 132.552 14.2529C131.276 15.5413 130.26 17.0621 129.503 18.8018C128.746 20.5486 128.372 22.3976 128.372 24.3555C128.372 26.3135 128.746 28.1632 129.503 29.9102C130.26 31.657 131.276 33.1707 132.552 34.459C133.827 35.7473 135.326 36.7738 137.056 37.5381C138.778 38.3023 140.615 38.6807 142.554 38.6807C144.492 38.6807 146.322 38.3023 148.052 37.5381C149.774 36.7738 151.28 35.7473 152.556 34.459C153.831 33.1707 154.848 31.657 155.604 29.9102C156.361 28.1705 156.735 26.3135 156.735 24.3555C156.735 22.3976 156.354 20.5486 155.604 18.8018C154.848 17.0621 153.831 15.5413 152.556 14.2529C151.28 12.9646 149.774 11.9381 148.052 11.1738C146.322 10.4096 144.492 10.0313 142.554 10.0312ZM181.562 10.0303C179.767 10.0303 178.074 10.3503 176.488 10.998C174.903 11.6459 173.476 12.5122 172.2 13.6113C170.925 14.7104 169.873 16.0355 169.044 17.5859C168.215 19.1362 167.661 20.7958 167.38 22.5645H195.751C195.47 20.7958 194.907 19.1363 194.086 17.5859C193.257 16.0355 192.205 14.7105 190.93 13.6113C189.654 12.5122 188.212 11.6386 186.605 10.998C184.999 10.3503 183.319 10.0303 181.568 10.0303H181.562Z" fill="white"/>
</svg>
