<svg width="16" height="16" viewBox="0 0 16 16" fill="none" xmlns="http://www.w3.org/2000/svg">
<path d="M2.85394 13.1467C2.77085 13.0636 2.71546 12.9649 2.68776 12.8507C2.66007 12.7399 2.66007 12.6274 2.68776 12.5131C2.71546 12.4024 2.76912 12.3089 2.84875 12.2327L7.08114 8.00033L2.84875 3.76793C2.76912 3.69177 2.71546 3.59829 2.68776 3.4875C2.66007 3.37672 2.66007 3.2642 2.68776 3.14995C2.71546 3.0357 2.77085 2.93703 2.85394 2.85394C2.93703 2.77085 3.03397 2.71546 3.14476 2.68776C3.25901 2.66007 3.37153 2.66007 3.48231 2.68776C3.5931 2.71546 3.69004 2.76912 3.77313 2.84875L8.00033 7.08114L12.2275 2.85394C12.3106 2.77085 12.4076 2.71546 12.5183 2.68776C12.6291 2.66007 12.7399 2.66007 12.8507 2.68776C12.9615 2.71546 13.0584 2.77085 13.1415 2.85394C13.2281 2.93703 13.2852 3.0357 13.3129 3.14995C13.3406 3.26074 13.3406 3.37153 13.3129 3.48231C13.2852 3.5931 13.2298 3.69004 13.1467 3.77313L8.91951 8.00033L13.1467 12.2275C13.2298 12.3106 13.2835 12.4058 13.3077 12.5131C13.3354 12.6239 13.3354 12.7347 13.3077 12.8455C13.2835 12.9598 13.2281 13.0602 13.1415 13.1467C13.0584 13.2298 12.9615 13.2852 12.8507 13.3129C12.7399 13.3406 12.6291 13.3406 12.5183 13.3129C12.4076 13.2852 12.3106 13.2298 12.2275 13.1467L8.00033 8.91951L3.77313 13.1519C3.69004 13.2315 3.5931 13.2852 3.48231 13.3129C3.37153 13.3406 3.26074 13.3406 3.14995 13.3129C3.03917 13.2852 2.9405 13.2298 2.85394 13.1467Z" fill="#A8B8C6" style="mix-blend-mode:plus-darker"/>
</svg>
