<svg width="40" height="40" viewBox="0 0 40 40" fill="none" xmlns="http://www.w3.org/2000/svg">
<path fill-rule="evenodd" clip-rule="evenodd" d="M20.0003 28.5303C19.4699 28.5303 18.9612 28.3196 18.5861 27.9445C18.211 27.5695 18.0003 27.0608 18.0003 26.5303C18.0003 25.9999 18.211 25.4912 18.5861 25.1161C18.9612 24.741 19.4699 24.5303 20.0003 24.5303C20.5308 24.5303 21.0395 24.741 21.4145 25.1161C21.7896 25.4912 22.0003 25.9999 22.0003 26.5303C22.0003 27.0608 21.7896 27.5695 21.4145 27.9445C21.0395 28.3196 20.5308 28.5303 20.0003 28.5303V28.5303ZM18.3337 12.1387C18.3337 11.6966 18.5093 11.2727 18.8218 10.9601C19.1344 10.6476 19.5583 10.472 20.0003 10.472C20.4424 10.472 20.8663 10.6476 21.1788 10.9601C21.4914 11.2727 21.667 11.6966 21.667 12.1387V20.472C21.667 20.914 21.4914 21.3379 21.1788 21.6505C20.8663 21.9631 20.4424 22.1387 20.0003 22.1387C19.5583 22.1387 19.1344 21.9631 18.8218 21.6505C18.5093 21.3379 18.3337 20.914 18.3337 20.472V12.1387ZM20.0003 1.66699C9.87533 1.66699 1.66699 9.87533 1.66699 20.0003C1.66699 30.127 9.87533 38.3337 20.0003 38.3337C30.1253 38.3337 38.3337 30.127 38.3337 20.0003C38.3337 9.87533 30.1253 1.66699 20.0003 1.66699Z" fill="#FF694E"/>
</svg>
