<svg xmlns="http://www.w3.org/2000/svg" width="32" height="32" viewBox="0 0 25 19" fill="none">
<path d="M19.6442 8.22168C20.4788 8.22168 21.1559 8.89883 21.1559 9.7334C21.1559 10.568 20.4788 11.2451 19.6442 11.2451H7.55566C6.7211 11.2451 6.04395 10.568 6.04395 9.7334C6.04395 8.89883 6.7211 8.22168 7.55566 8.22168H19.6442Z" fill="currentColor"/>
<path d="M22.6663 0.666016C23.5009 0.666016 24.1781 1.34317 24.1781 2.17773C24.1781 3.0123 23.5009 3.68945 22.6663 3.68945H7.55566C6.7211 3.68945 6.04395 3.0123 6.04395 2.17773C6.04395 1.34317 6.7211 0.666016 7.55566 0.666016H22.6663Z" fill="currentColor"/>
<path d="M22.6663 15.777C23.5009 15.777 24.1781 16.4541 24.1781 17.2887C24.1781 18.1233 23.5009 18.8004 22.6663 18.8004H7.55566C6.7211 18.8004 6.04395 18.1233 6.04395 17.2887C6.04395 16.4541 6.7211 15.777 7.55566 15.777H22.6663Z" fill="currentColor"/>
<path d="M0 2.17774C0 1.34317 0.676547 0.666626 1.51111 0.666626C2.34567 0.666626 3.02222 1.34317 3.02222 2.17774C3.02222 3.0123 2.34567 3.68885 1.51111 3.68885C0.676547 3.68885 0 3.0123 0 2.17774Z" fill="currentColor"/>
<path d="M1.35681 3.68104C0.645449 3.60886 0.0799399 3.04341 0.00781272 2.33204L0 2.17839C0 1.3438 0.677175 0.666626 1.51176 0.666626L1.66541 0.674439C2.42754 0.751712 3.02222 1.39588 3.02222 2.17839L3.01441 2.33204C2.93715 3.09396 2.29399 3.68854 1.51176 3.68885L1.35681 3.68104Z" fill="currentColor"/>
<path d="M0 9.7334C0 8.89884 0.676547 8.22229 1.51111 8.22229C2.34567 8.22229 3.02222 8.89884 3.02222 9.7334C3.02222 10.568 2.34567 11.2445 1.51111 11.2445C0.676547 11.2445 0 10.568 0 9.7334Z" fill="currentColor"/>
<path d="M1.35681 11.2367C0.645449 11.1645 0.0799399 10.5991 0.00781272 9.8877L0 9.73405C0 8.89946 0.677175 8.22229 1.51176 8.22229L1.66541 8.2301C2.42754 8.30738 3.02222 8.95154 3.02222 9.73405L3.01441 9.8877C2.93715 10.6496 2.29399 11.2442 1.51176 11.2445L1.35681 11.2367Z" fill="currentColor"/>
<path d="M0 17.2888C0 16.4543 0.676547 15.7777 1.51111 15.7777C2.34567 15.7777 3.02222 16.4543 3.02222 17.2888C3.02222 18.1234 2.34567 18.7999 1.51111 18.7999C0.676547 18.7999 0 18.1234 0 17.2888Z" fill="currentColor"/>
<path d="M1.35681 18.7921C0.645449 18.7199 0.0799399 18.1545 0.00781272 17.4431L0 17.2895C0 16.4549 0.677175 15.7777 1.51176 15.7777L1.66541 15.7855C2.42754 15.8628 3.02222 16.507 3.02222 17.2895L3.01441 17.4431C2.93715 18.205 2.29399 18.7996 1.51176 18.7999L1.35681 18.7921Z" fill="currentColor"/>
</svg>
