<svg width="16" height="16" viewBox="0 0 16 16" fill="none" xmlns="http://www.w3.org/2000/svg">
<g clip-path="url(#clip0_270_4463)">
<path d="M9.55579 6.49942C9.55556 5.64051 8.85887 4.94454 7.99991 4.94454C7.14115 4.94478 6.44526 5.64066 6.44503 6.49942C6.44503 7.35839 7.141 8.05507 7.99991 8.05531C8.85902 8.05531 9.55579 7.35853 9.55579 6.49942ZM10.4452 6.49942C10.4452 7.84945 9.34994 8.94467 7.99991 8.94467C6.65008 8.94443 5.55566 7.84931 5.55566 6.49942C5.5559 5.14974 6.65023 4.05541 7.99991 4.05518C9.34979 4.05518 10.4449 5.14959 10.4452 6.49942Z" fill="white"/>
<path d="M8.25522 14.8644C8.10225 14.9714 7.89825 14.9714 7.74529 14.8644L8.00026 14.5L8.25522 14.8644ZM12.5555 6.49977C12.5555 5.29159 12.0758 4.1329 11.2214 3.27859C10.3671 2.42431 9.20843 1.94454 8.00026 1.94454C6.79208 1.94456 5.63339 2.42427 4.77907 3.27859C3.92476 4.1329 3.44505 5.29159 3.44503 6.49977C3.44503 8.58975 4.61151 10.4879 5.83607 11.8962C6.4428 12.5939 7.05112 13.1566 7.50739 13.5444C7.70436 13.7118 7.87353 13.8448 8.00026 13.9429C8.1271 13.8447 8.29691 13.7121 8.49413 13.5444C8.95049 13.1565 9.55862 12.594 10.1654 11.8962C11.39 10.4879 12.5555 8.58975 12.5555 6.49977ZM13.4449 6.49977C13.4449 8.90979 12.1114 11.0126 10.836 12.4794C10.1929 13.2189 9.5504 13.812 9.0693 14.221C8.82844 14.4257 8.62722 14.5851 8.48509 14.6938C8.41403 14.7481 8.35757 14.7897 8.31846 14.8182C8.29897 14.8325 8.28394 14.8437 8.27329 14.8514C8.26796 14.8552 8.26323 14.8583 8.26024 14.8604C8.25906 14.8612 8.25802 14.8618 8.25723 14.8624L8.25623 14.8634H8.25522L8.00026 14.5L7.74529 14.8634L7.74329 14.8624C7.7425 14.8618 7.74145 14.8612 7.74028 14.8604C7.73729 14.8583 7.73255 14.8552 7.72723 14.8514C7.71658 14.8438 7.70147 14.8324 7.68205 14.8182C7.64295 14.7897 7.58642 14.748 7.51542 14.6938C7.37331 14.5851 7.17201 14.4257 6.93121 14.221C6.45011 13.812 5.8076 13.2189 5.16453 12.4794C3.88909 11.0126 2.55566 8.90979 2.55566 6.49977C2.55569 5.05584 3.12969 3.67122 4.1507 2.65021C5.17171 1.6292 6.55633 1.0552 8.00026 1.05518C9.44417 1.05518 10.8288 1.62923 11.8498 2.65021C12.8708 3.67122 13.4448 5.05584 13.4449 6.49977Z" fill="white"/>
</g>
<defs>
<clipPath id="clip0_270_4463">
<rect width="16" height="16" fill="white"/>
</clipPath>
</defs>
</svg>
