<svg width="24" height="24" viewBox="0 0 24 24" fill="none" xmlns="http://www.w3.org/2000/svg">
<path d="M15.333 19.5003C15.333 18.7126 15.3322 18.1634 15.3029 17.7336C15.2741 17.3111 15.2204 17.0644 15.1426 16.8766C14.8889 16.2643 14.4024 15.7778 13.79 15.5241C13.6022 15.4463 13.3555 15.3926 12.9331 15.3638C12.5032 15.3345 11.9541 15.3337 11.1663 15.3337H8.66634C7.87858 15.3337 7.32944 15.3345 6.89958 15.3638C6.47715 15.3926 6.23047 15.4463 6.04264 15.5241C5.43033 15.7778 4.94383 16.2643 4.69011 16.8766C4.61231 17.0644 4.55861 17.3111 4.52979 17.7336C4.50048 18.1634 4.49968 18.7126 4.49968 19.5003C4.49968 19.9606 4.12658 20.3337 3.66634 20.3337C3.20611 20.3337 2.83301 19.9606 2.83301 19.5003C2.83301 18.7352 2.83227 18.1194 2.86637 17.6196C2.90099 17.1124 2.97451 16.6641 3.15039 16.2394C3.57328 15.2185 4.38449 14.4073 5.40544 13.9844C5.83011 13.8085 6.27846 13.735 6.78565 13.7004C7.28545 13.6663 7.90118 13.667 8.66634 13.667H11.1663C11.9315 13.667 12.5472 13.6663 13.047 13.7004C13.5542 13.735 14.0026 13.8085 14.4272 13.9844C15.4482 14.4073 16.2594 15.2185 16.6823 16.2394C16.8582 16.6641 16.9317 17.1124 16.9663 17.6196C17.0004 18.1194 16.9997 18.7352 16.9997 19.5003C16.9997 19.9606 16.6266 20.3337 16.1663 20.3337C15.7061 20.3337 15.333 19.9606 15.333 19.5003ZM19.4997 19.5003V17.8337C19.4997 16.67 18.7038 15.6903 17.6255 15.4126C17.1799 15.2979 16.9111 14.8434 17.0257 14.3978C17.1404 13.9522 17.5949 13.6835 18.0405 13.798C19.8375 14.2605 21.1663 15.891 21.1663 17.8337V19.5003C21.1663 19.9606 20.7932 20.3337 20.333 20.3337C19.8728 20.3337 19.4997 19.9606 19.4997 19.5003ZM12.4163 7.83366C12.4163 6.45295 11.2971 5.33366 9.91634 5.33366C8.53563 5.33366 7.41634 6.45295 7.41634 7.83366C7.41634 9.21437 8.53563 10.3337 9.91634 10.3337C11.2971 10.3337 12.4163 9.21437 12.4163 7.83366ZM16.1663 7.83366C16.1663 6.78586 15.5215 5.88667 14.6038 5.51514C14.1773 5.34249 13.9716 4.85688 14.144 4.43034C14.3167 4.00374 14.8022 3.79787 15.2288 3.97054C16.7543 4.58803 17.833 6.08371 17.833 7.83366C17.833 9.58361 16.7543 11.0793 15.2288 11.6968C14.8022 11.8694 14.3167 11.6636 14.144 11.237C13.9716 10.8104 14.1773 10.3248 14.6038 10.1522C15.5215 9.78065 16.1663 8.88146 16.1663 7.83366ZM14.083 7.83366C14.083 10.1348 12.2175 12.0003 9.91634 12.0003C7.61516 12.0003 5.74968 10.1348 5.74968 7.83366C5.74968 5.53247 7.61516 3.66699 9.91634 3.66699C12.2175 3.66699 14.083 5.53247 14.083 7.83366Z" fill="white"/>
</svg>
