<svg width="19" height="17" viewBox="0 0 19 17" fill="none" xmlns="http://www.w3.org/2000/svg">
<path d="M12.5 15.8333C12.5 15.0456 12.4992 14.4964 12.4699 14.0666C12.4411 13.6441 12.3874 13.3975 12.3096 13.2096C12.0558 12.5973 11.5693 12.1108 10.957 11.8571C10.7692 11.7793 10.5225 11.7256 10.1001 11.6968C9.67024 11.6675 9.1211 11.6667 8.33333 11.6667H5.83333C5.04557 11.6667 4.49643 11.6675 4.06657 11.6968C3.64414 11.7256 3.39746 11.7793 3.20964 11.8571C2.59732 12.1108 2.11083 12.5973 1.8571 13.2096C1.7793 13.3975 1.7256 13.6441 1.69678 14.0666C1.66747 14.4964 1.66667 15.0456 1.66667 15.8333C1.66667 16.2936 1.29357 16.6667 0.833335 16.6667C0.373097 16.6667 1.25634e-06 16.2936 1.25634e-06 15.8333C1.25634e-06 15.0682 -0.000733963 14.4524 0.0333671 13.9526C0.0679773 13.4455 0.141506 12.9971 0.317384 12.5724C0.740276 11.5515 1.55148 10.7403 2.57243 10.3174C2.9971 10.1415 3.44546 10.068 3.95264 10.0334C4.45244 9.99926 5.06817 10 5.83333 10H8.33333C9.0985 10 9.71423 9.99926 10.214 10.0334C10.7212 10.068 11.1696 10.1415 11.5942 10.3174C12.6152 10.7403 13.4264 11.5515 13.8493 12.5724C14.0252 12.9971 14.0987 13.4455 14.1333 13.9526C14.1674 14.4524 14.1667 15.0682 14.1667 15.8333C14.1667 16.2936 13.7936 16.6667 13.3333 16.6667C12.8731 16.6667 12.5 16.2936 12.5 15.8333ZM16.6667 15.8333V14.1667C16.6667 13.003 15.8708 12.0233 14.7925 11.7456C14.3468 11.6309 14.0781 11.1764 14.1927 10.7308C14.3074 10.2852 14.7619 10.0165 15.2075 10.131C17.0045 10.5935 18.3333 12.224 18.3333 14.1667V15.8333C18.3333 16.2936 17.9602 16.6667 17.5 16.6667C17.0398 16.6667 16.6667 16.2936 16.6667 15.8333ZM9.58333 4.16667C9.58333 2.78595 8.46405 1.66667 7.08334 1.66667C5.70262 1.66667 4.58333 2.78595 4.58333 4.16667C4.58333 5.54738 5.70262 6.66667 7.08334 6.66667C8.46405 6.66667 9.58333 5.54738 9.58333 4.16667ZM13.3333 4.16667C13.3333 3.11887 12.6885 2.21968 11.7708 1.84814C11.3443 1.6755 11.1386 1.18989 11.311 0.763346C11.4837 0.336744 11.9692 0.13088 12.3958 0.303548C13.9213 0.921039 15 2.41672 15 4.16667C15 5.91661 13.9213 7.41229 12.3958 8.02979C11.9692 8.20245 11.4837 7.99659 11.311 7.56999C11.1386 7.14344 11.3443 6.65784 11.7708 6.48519C12.6885 6.11366 13.3333 5.21447 13.3333 4.16667ZM11.25 4.16667C11.25 6.46785 9.38452 8.33333 7.08334 8.33333C4.78215 8.33333 2.91667 6.46785 2.91667 4.16667C2.91667 1.86548 4.78215 0 7.08334 0C9.38452 0 11.25 1.86548 11.25 4.16667Z" fill="white"/>
</svg>
