<svg xmlns="http://www.w3.org/2000/svg" width="32" height="32" viewBox="0 0 32 32" fill="none">
<path d="M14.5049 26.5054V17.8278H5.82851C4.91088 17.8278 4.16699 17.084 4.16699 16.1663C4.16719 15.2489 4.911 14.5048 5.82851 14.5048H14.5049V5.82838C14.5049 4.91088 15.249 4.16707 16.1665 4.16687C17.0841 4.16687 17.828 4.91076 17.828 5.82838V14.5048H26.5055C27.4228 14.505 28.1668 15.249 28.167 16.1663C28.167 17.0838 27.4229 17.8276 26.5055 17.8278H17.828V26.5054C17.8278 27.4228 17.084 28.1669 16.1665 28.1669C15.2491 28.1667 14.5051 27.4227 14.5049 26.5054Z" fill="currentColor"/>
</svg>
