<svg xmlns="http://www.w3.org/2000/svg" width="32" height="32" viewBox="0 0 32 32" fill="none">
<path d="M4 21.0402V15.9999C4 15.3371 4.53726 14.7998 5.2 14.7998C5.86274 14.7998 6.4 15.3371 6.4 15.9999V21.0402C6.4 22.0678 6.40042 22.7665 6.44453 23.3066C6.48752 23.8327 6.5657 24.1021 6.66133 24.2898C6.89141 24.7413 7.25866 25.1086 7.71016 25.3386C7.89784 25.4343 8.16726 25.5125 8.69336 25.5554C9.23341 25.5996 9.9321 25.6 10.9598 25.6H21.0402C22.0679 25.6 22.7666 25.5996 23.3066 25.5554C23.8327 25.5125 24.1022 25.4343 24.2898 25.3386C24.7413 25.1086 25.1086 24.7413 25.3387 24.2898C25.4343 24.1021 25.5125 23.8327 25.5555 23.3066C25.5996 22.7665 25.6 22.0678 25.6 21.0402V15.9999C25.6 15.3371 26.1373 14.7998 26.8 14.7998C27.4627 14.7998 28 15.3371 28 15.9999V21.0402C28 22.0284 28.0012 22.8418 27.9473 23.5023C27.8921 24.1768 27.7741 24.7973 27.4773 25.3797C27.0172 26.2827 26.2827 27.0172 25.3797 27.4773C24.7973 27.7741 24.1768 27.8921 23.5023 27.9473C22.8419 28.0012 22.0284 28 21.0402 28H10.9598C9.97158 28 9.15811 28.0012 8.49766 27.9473C7.82319 27.8921 7.20268 27.7741 6.62031 27.4773C5.71731 27.0172 4.98282 26.2827 4.52266 25.3797C4.22593 24.7973 4.10785 24.1768 4.05274 23.5023C3.99878 22.8418 4 22.0284 4 21.0402ZM14.8 19.5999V8.09664L12.0484 10.8482C11.5798 11.3169 10.8202 11.3169 10.3516 10.8482C9.88293 10.3796 9.88293 9.61998 10.3516 9.15134L15.1516 4.35129L15.243 4.26925C15.7143 3.88483 16.4091 3.91194 16.8484 4.35129L21.6484 9.15134C22.1171 9.61998 22.1171 10.3796 21.6484 10.8482C21.1798 11.3169 20.4202 11.3169 19.9516 10.8482L17.2 8.09664V19.5999C17.2 20.2626 16.6627 20.7999 16 20.7999C15.3373 20.7999 14.8 20.2626 14.8 19.5999Z" fill="white"/>
</svg>
