<svg width="37" height="37" viewBox="0 0 37 37" fill="none" xmlns="http://www.w3.org/2000/svg">
<path fill-rule="evenodd" clip-rule="evenodd" d="M18.3333 26.8633C17.8029 26.8633 17.2942 26.6526 16.9191 26.2775C16.544 25.9025 16.3333 25.3938 16.3333 24.8633C16.3333 24.3329 16.544 23.8242 16.9191 23.4491C17.2942 23.074 17.8029 22.8633 18.3333 22.8633C18.8638 22.8633 19.3725 23.074 19.7475 23.4491C20.1226 23.8242 20.3333 24.3329 20.3333 24.8633C20.3333 25.3938 20.1226 25.9025 19.7475 26.2775C19.3725 26.6526 18.8638 26.8633 18.3333 26.8633ZM16.6667 10.4717C16.6667 10.0296 16.8423 9.60572 17.1548 9.29315C17.4674 8.98059 17.8913 8.805 18.3333 8.805C18.7754 8.805 19.1993 8.98059 19.5118 9.29315C19.8244 9.60572 20 10.0296 20 10.4717V18.805C20 19.247 19.8244 19.6709 19.5118 19.9835C19.1993 20.2961 18.7754 20.4717 18.3333 20.4717C17.8913 20.4717 17.4674 20.2961 17.1548 19.9835C16.8423 19.6709 16.6667 19.247 16.6667 18.805V10.4717ZM18.3333 0C8.20833 0 0 8.20833 0 18.3333C0 28.46 8.20833 36.6667 18.3333 36.6667C28.4583 36.6667 36.6667 28.46 36.6667 18.3333C36.6667 8.20833 28.4583 0 18.3333 0Z" fill="#FF694E"/>
</svg>
