<svg width="16" height="16" viewBox="0 0 16 16" fill="none" xmlns="http://www.w3.org/2000/svg">
<path d="M0.280428 15.7196C0.155794 15.5949 0.0727037 15.4469 0.0311587 15.2756C-0.0103862 15.1094 -0.0103862 14.9406 0.0311587 14.7692C0.0727037 14.6031 0.153197 14.4628 0.272639 14.3486L6.62123 8L0.272639 1.65141C0.153197 1.53716 0.0727037 1.39695 0.0311587 1.23077C-0.0103862 1.06459 -0.0103862 0.895813 0.0311587 0.72444C0.0727037 0.553067 0.155794 0.405063 0.280428 0.280428C0.405063 0.155794 0.550471 0.0727037 0.71665 0.0311587C0.888023 -0.0103862 1.0568 -0.0103862 1.22298 0.0311587C1.38916 0.0727037 1.53457 0.153197 1.6592 0.272639L8 6.62123L14.3408 0.280428C14.4654 0.155794 14.6108 0.0727037 14.777 0.0311587C14.9432 -0.0103862 15.1094 -0.0103862 15.2756 0.0311587C15.4417 0.0727037 15.5871 0.155794 15.7118 0.280428C15.8416 0.405063 15.9273 0.553067 15.9688 0.72444C16.0104 0.89062 16.0104 1.0568 15.9688 1.22298C15.9273 1.38916 15.8442 1.53457 15.7196 1.6592L9.37877 8L15.7196 14.3408C15.8442 14.4654 15.9247 14.6082 15.9611 14.7692C16.0026 14.9354 16.0026 15.1016 15.9611 15.2678C15.9247 15.4391 15.8416 15.5897 15.7118 15.7196C15.5871 15.8442 15.4417 15.9273 15.2756 15.9688C15.1094 16.0104 14.9432 16.0104 14.777 15.9688C14.6108 15.9273 14.4654 15.8442 14.3408 15.7196L8 9.37877L1.6592 15.7274C1.53457 15.8468 1.38916 15.9273 1.22298 15.9688C1.0568 16.0104 0.89062 16.0104 0.72444 15.9688C0.55826 15.9273 0.410256 15.8442 0.280428 15.7196Z" fill="white" style="mix-blend-mode:plus-darker"/>
</svg>
