<svg width="256" height="256" viewBox="0 0 256 256" fill="none" xmlns="http://www.w3.org/2000/svg">
<rect width="256" height="256" rx="64" fill="white"/>
<rect width="256" height="256" rx="64" fill="url(#paint0_linear_989_7680)"/>
<path d="M177.874 54.1582L167.791 65.7393C177.427 75.7542 183.364 89.3543 183.364 104.319C183.364 135.024 158.383 159.999 127.685 159.999C115.123 159.999 103.525 155.817 94.1982 148.773L86.2139 158.318C84.6825 160.148 84.3724 162.534 85.3818 164.696C86.3914 166.859 88.4224 168.149 90.8086 168.149H152.952C162.032 168.15 169.414 175.532 169.414 184.611C169.414 193.691 162.026 201.074 152.952 201.074H76.583V190.176H152.952C156.021 190.176 158.516 187.68 158.516 184.611C158.515 181.543 156.021 179.048 152.952 179.048H90.8086C84.1778 179.048 78.3098 175.319 75.5049 169.308C72.7002 163.296 73.5947 156.408 77.8506 151.32L78.8535 150.12L79.0869 150.312L93.3018 132.98C101.522 142.825 113.881 149.1 127.679 149.101C152.372 149.101 172.46 129.013 172.46 104.319C172.46 79.6261 152.372 59.5391 127.679 59.5391C102.986 59.5392 82.8986 79.6204 82.8984 104.313C82.8984 110.942 84.3473 117.238 86.9424 122.903L79.4287 132.062C74.7076 123.889 72 114.411 72 104.313C72.0002 73.6148 96.9744 48.6407 127.685 48.6406C139.512 48.6406 150.479 52.3458 159.508 58.6553L169.655 47L177.874 54.1582Z" fill="black"/>
<path d="M177.874 54.1582L167.791 65.7393C177.427 75.7542 183.364 89.3543 183.364 104.319C183.364 135.024 158.383 159.999 127.685 159.999C115.123 159.999 103.525 155.817 94.1982 148.773L86.2139 158.318C84.6825 160.148 84.3724 162.534 85.3818 164.696C86.3914 166.859 88.4224 168.149 90.8086 168.149H152.952C162.032 168.15 169.414 175.532 169.414 184.611C169.414 193.691 162.026 201.074 152.952 201.074H76.583V190.176H152.952C156.021 190.176 158.516 187.68 158.516 184.611C158.515 181.543 156.021 179.048 152.952 179.048H90.8086C84.1778 179.048 78.3098 175.319 75.5049 169.308C72.7002 163.296 73.5947 156.408 77.8506 151.32L78.8535 150.12L79.0869 150.312L93.3018 132.98C101.522 142.825 113.881 149.1 127.679 149.101C152.372 149.101 172.46 129.013 172.46 104.319C172.46 79.6261 152.372 59.5391 127.679 59.5391C102.986 59.5392 82.8986 79.6204 82.8984 104.313C82.8984 110.942 84.3473 117.238 86.9424 122.903L79.4287 132.062C74.7076 123.889 72 114.411 72 104.313C72.0002 73.6148 96.9744 48.6407 127.685 48.6406C139.512 48.6406 150.479 52.3458 159.508 58.6553L169.655 47L177.874 54.1582Z" fill="url(#paint1_radial_989_7680)"/>
<defs>
<linearGradient id="paint0_linear_989_7680" x1="128" y1="0" x2="128" y2="256" gradientUnits="userSpaceOnUse">
<stop stop-color="#001D39"/>
<stop offset="1" stop-color="#0D0C14"/>
</linearGradient>
<radialGradient id="paint1_radial_989_7680" cx="0" cy="0" r="1" gradientTransform="matrix(88.4175 64.3581 -6.1712 147.474 91.1066 68.6667)" gradientUnits="userSpaceOnUse">
<stop stop-color="#00D9FF"/>
<stop offset="0.561465" stop-color="#60E7FF"/>
<stop offset="1" stop-color="#C6F6FF"/>
</radialGradient>
</defs>
</svg>
