<svg width="24" height="24" viewBox="0 0 24 24" fill="none" xmlns="http://www.w3.org/2000/svg">
<path d="M15.1495 4.97758C16.1198 4.00756 17.693 4.00738 18.6632 4.97758C19.6333 5.94778 19.6332 7.52097 18.6632 8.49125L8.39072 18.7637C8.13321 19.0212 7.92139 19.2402 7.66318 19.3985C7.44991 19.5292 7.21693 19.6252 6.97372 19.6836C6.67912 19.7544 6.37415 19.75 6.00986 19.75H4.64071C4.22656 19.75 3.8908 19.4142 3.89071 19V17.6309C3.89071 17.2666 3.88542 16.9616 3.95614 16.667C4.01458 16.4237 4.11153 16.1909 4.24228 15.9776C4.40057 15.7194 4.61952 15.5076 4.87704 15.25L15.1495 4.97758ZM19.3595 18.25C19.7735 18.2503 20.1095 18.586 20.1095 19C20.1094 19.414 19.7734 19.7498 19.3595 19.75H12.0001C11.5859 19.75 11.2502 19.4142 11.2501 19C11.2501 18.5858 11.5859 18.25 12.0001 18.25H19.3595ZM5.39072 18.25H6.00986C6.44555 18.25 6.54132 18.2453 6.62314 18.2256C6.71347 18.2039 6.79978 18.1677 6.879 18.1192C6.95071 18.0752 7.02222 18.0111 7.33017 17.7032L17.6026 7.4307C17.9868 7.04621 17.987 6.42254 17.6026 6.03813C17.2182 5.65372 16.5946 5.6539 16.2101 6.03813L5.93759 16.3106C5.6296 16.6186 5.56554 16.69 5.52157 16.7618C5.47303 16.841 5.43682 16.9273 5.41513 17.0176C5.39551 17.0994 5.39072 17.1954 5.39072 17.6309V18.25Z" fill="white"/>
</svg>
