<svg width="16" height="16" viewBox="0 0 16 16" fill="none" xmlns="http://www.w3.org/2000/svg">
<path d="M7.25198 13.2523V8.91349H2.91376C2.45495 8.91349 2.08301 8.54155 2.08301 8.08274C2.08311 7.62401 2.45501 7.25198 2.91376 7.25198H7.25198V2.91376C7.25198 2.45501 7.62401 2.08311 8.08274 2.08301C8.54155 2.08301 8.91349 2.45495 8.91349 2.91376V7.25198H13.2523C13.7109 7.25208 14.0829 7.62407 14.083 8.08274C14.083 8.54149 13.711 8.9134 13.2523 8.91349H8.91349V13.2523C8.9134 13.711 8.54149 14.083 8.08274 14.083C7.62407 14.0829 7.25208 13.7109 7.25198 13.2523Z" fill="black"/>
</svg>
