<svg width="32" height="32" viewBox="0 0 32 32" fill="none" xmlns="http://www.w3.org/2000/svg">
<rect width="32" height="32" rx="8" fill="white" fill-opacity="0.04"/>
<path d="M16 21.7072H22M10 21.7072H11.1164C11.4425 21.7072 11.6055 21.7072 11.759 21.6703C11.895 21.6377 12.0251 21.5838 12.1444 21.5107C12.279 21.4282 12.3943 21.3129 12.6249 21.0823L21 12.7072C21.5523 12.1549 21.5523 11.2595 21 10.7072C20.4477 10.1549 19.5523 10.1549 19 10.7072L10.6248 19.0823C10.3942 19.3129 10.2789 19.4282 10.1965 19.5628C10.1234 19.6821 10.0695 19.8122 10.0368 19.9482C10 20.1017 10 20.2647 10 20.5908V21.7072Z" stroke="white" stroke-opacity="0.8" stroke-width="1.5" stroke-linecap="round" stroke-linejoin="round"/>
</svg>
